#!OML:ASF X:\für Bonn\!DataBase\2005_08_11_Bastian_Final\c3d\Bastian.ASF
:FULLY-SPECIFIED
:DEGREES
229
root 18.5874 15.6827 -3.36229 1097.02 -47.9336 18.1823
lowerback 77.2045 -1.18612 9.42621
upperback 12.2933 4.57071 2.34013
thorax -6.26862 1.55298 -2.71534
lowerneck -6.72929 -10.4514 -5.1199
upperneck -28.0148 -11.7005 17.6601
head -5.87166 -7.34715 6.93011
rclavicle -2.54444e-014 1.59028e-015
rhumerus 75.0452 2.73423 -60.1445
rradius 11.4342
rwrist 23.3877
rhand -38.7964 -14.9482
rfingers 7.12502
rthumb -11.8073 -44.5954
lclavicle -2.54444e-014 1.59028e-015
lhumerus -14.0734 -27.7469 -265.423
lradius 45.1018
lwrist -332.611
lhand -11.4314 -16.8598
lfingers 7.12502
lthumb 14.6049 12.6059
rfemur -79.0077 -28.9517 28.6878
rtibia 74.1789
rfoot -24.3012 -7.01
rtoes 5.93723
lfemur -72.4143 -11.761 -30.3752
ltibia 52.9039
lfoot 0.0657591 -23.9429
ltoes -11.5558
230
root 18.5911 15.7022 -3.36787 1097.05 -47.9413 17.9864
lowerback 77.0667 -1.20487 9.43151
upperback 12.3193 4.51573 2.22934
thorax -6.24504 1.54387 -2.8292
lowerneck -6.83461 -10.5123 -4.92519
upperneck -27.997 -11.7507 17.8457
head -5.84097 -7.40656 6.94917
rclavicle 3.18055e-015 0
rhumerus 74.5936 3.00691 -59.4204
rradius 11.6708
rwrist 22.5459
rhand -38.5465 -14.0983
rfingers 7.12502
rthumb -11.5663 -43.7591
lclavicle 3.18055e-015 0
lhumerus -14.0471 -27.8988 -265.581
lradius 44.9847
lwrist -332.571
lhand -11.2994 -16.7781
lfingers 7.12502
lthumb 14.7321 12.6784
rfemur -78.7198 -28.9272 28.7912
rtibia 73.8827
rfoot -24.1781 -7.02
rtoes 5.82876
lfemur -72.1676 -11.6918 -30.2343
ltibia 52.6571
lfoot 0.162518 -23.9252
ltoes -11.5291
231
root 18.5941 15.7249 -3.37386 1097 -47.9541 17.7782
lowerback 77.0515 -1.22617 9.4431
upperback 12.3001 4.47955 2.12294
thorax -6.26031 1.53766 -2.94346
lowerneck -7.00219 -10.5992 -4.65886
upperneck -27.9037 -11.8668 17.9307
head -5.7834 -7.4922 6.91271
rclavicle -8.90555e-014 -1.04958e-013
rhumerus 74.1046 3.31989 -58.5627
rradius 11.8947
rwrist 21.5655
rhand -38.3243 -13.2141
rfingers 7.12502
rthumb -11.3521 -42.8868
lclavicle -8.90555e-014 -1.04958e-013
lhumerus -14.0019 -28.0432 -265.722
lradius 44.8118
lwrist -332.614
lhand -11.1297 -16.73
lfingers 7.12502
lthumb 14.8955 12.7144
rfemur -78.315 -28.9102 28.8455
rtibia 73.5679
rfoot -24.0601 -6.98125
rtoes 5.95832
lfemur -71.8196 -11.5951 -30.1127
ltibia 52.38
lfoot 0.238245 -23.9185
ltoes -11.774
232
root 18.5966 15.7493 -3.3781 1096.96 -47.9958 17.5251
lowerback 77.032 -1.22048 9.44858
upperback 12.3153 4.45758 2.02132
thorax -6.23646 1.53827 -3.05528
lowerneck -7.24513 -10.6838 -4.33631
upperneck -27.8237 -11.9932 17.962
head -5.72697 -7.58365 6.84685
rclavicle 0 1.90833e-014
rhumerus 73.6442 3.63469 -57.675
rradius 12.1152
rwrist 20.5931
rhand -38.0789 -12.3776
rfingers 7.12502
rthumb -11.1154 -42.0632
lclavicle 0 1.90833e-014
lhumerus -13.855 -28.172 -265.89
lradius 44.5866
lwrist -332.609
lhand -11.1271 -16.787
lfingers 7.12502
lthumb 14.8981 12.6573
rfemur -77.8615 -28.8966 28.9361
rtibia 73.2233
rfoot -23.9234 -6.95373
rtoes 5.8274
lfemur -71.4331 -11.4984 -29.9238
ltibia 52.0874
lfoot 0.344122 -23.8777
ltoes -11.8086
233
root 18.5981 15.774 -3.3829 1096.85 -48.0461 17.3549
lowerback 76.9755 -1.16001 9.39153
upperback 12.3475 4.45092 1.97367
thorax -6.2079 1.53866 -3.08894
lowerneck -7.41909 -10.777 -4.05866
upperneck -27.7862 -12.1348 17.9801
head -5.69222 -7.68114 6.79158
rclavicle -4.13472e-014 -1.74931e-014
rhumerus 73.1935 3.99655 -56.6242
rradius 12.3353
rwrist 19.5153
rhand -37.8352 -11.5498
rfingers 7.12502
rthumb -10.8803 -41.248
lclavicle -4.13472e-014 -1.74931e-014
lhumerus -13.6862 -28.3312 -265.996
lradius 44.3328
lwrist -332.635
lhand -11.3047 -16.8964
lfingers 7.12502
lthumb 14.7269 12.5604
rfemur -77.3815 -28.8838 28.9444
rtibia 72.8691
rfoot -23.8149 -6.89383
rtoes 5.86079
lfemur -71.0129 -11.3821 -29.8301
ltibia 51.7776
lfoot 0.394003 -23.8574
ltoes -11.9058
234
root 18.6002 15.8009 -3.38712 1096.75 -48.1081 17.1266
lowerback 76.8959 -1.09495 9.34855
upperback 12.3972 4.44983 1.91369
thorax -6.15851 1.54385 -3.14494
lowerneck -7.54784 -10.8355 -3.70313
upperneck -27.7615 -12.2374 17.9426
head -5.68518 -7.76261 6.71276
rclavicle -2.54444e-014 2.8625e-014
rhumerus 72.7349 4.35938 -55.6538
rradius 12.5108
rwrist 18.5112
rhand -37.6136 -10.6611
rfingers 7.12502
rthumb -10.6666 -40.3704
lclavicle -2.54444e-014 2.8625e-014
lhumerus -13.513 -28.4481 -266.131
lradius 44.0646
lwrist -332.693
lhand -11.4687 -17.0423
lfingers 7.12502
lthumb 14.5689 12.4261
rfemur -76.9055 -28.9316 29.055
rtibia 72.4958
rfoot -23.6532 -6.79622
rtoes 5.70128
lfemur -70.5575 -11.2641 -29.6804
ltibia 51.4594
lfoot 0.465111 -23.7873
ltoes -12.0575
235
root 18.6007 15.8296 -3.39069 1096.68 -48.1731 16.8528
lowerback 76.7313 -0.97296 9.26711
upperback 12.5132 4.47116 1.92421
thorax -6.05009 1.55234 -3.11584
lowerneck -7.62454 -10.8756 -3.43086
upperneck -27.822 -12.3088 17.9099
head -5.71085 -7.8276 6.6601
rclavicle 7.63333e-014 3.02153e-014
rhumerus 72.356 4.81069 -54.3978
rradius 12.7127
rwrist 17.3072
rhand -37.3672 -9.82334
rfingers 7.12502
rthumb -10.4289 -39.5447
lclavicle 7.63333e-014 3.02153e-014
lhumerus -13.2549 -28.4541 -266.221
lradius 43.7796
lwrist -332.817
lhand -11.5794 -17.1223
lfingers 7.12502
lthumb 14.4623 12.3537
rfemur -76.4143 -29.0104 29.2209
rtibia 72.1047
rfoot -23.513 -6.58374
rtoes 5.86031
lfemur -70.0904 -11.1134 -29.5141
ltibia 51.1278
lfoot 0.588264 -23.7723
ltoes -12.0516
236
root 18.6005 15.8583 -3.39376 1096.53 -48.2805 16.6647
lowerback 76.506 -0.818397 9.12574
upperback 12.6754 4.46685 1.90685
thorax -5.89898 1.5562 -3.08815
lowerneck -7.69178 -10.897 -3.13137
upperneck -27.8583 -12.3457 17.9143
head -5.73265 -7.87911 6.61477
rclavicle 0 7.15625e-014
rhumerus 72.0462 5.33829 -52.8733
rradius 12.8806
rwrist 15.7462
rhand -37.0869 -9.04779
rfingers 7.12502
rthumb -10.1585 -38.7825
lclavicle 0 7.15625e-014
lhumerus -12.9809 -28.5678 -266.4
lradius 43.5457
lwrist -332.782
lhand -11.7125 -17.1653
lfingers 7.12502
lthumb 14.334 12.3199
rfemur -75.8874 -29.0847 29.3131
rtibia 71.6933
rfoot -23.3465 -6.43266
rtoes 5.69136
lfemur -69.5759 -10.9696 -29.4002
ltibia 50.7821
lfoot 0.596377 -23.7101
ltoes -12.3775
237
root 18.6015 15.8886 -3.39673 1096.39 -48.4088 16.4107
lowerback 76.2514 -0.629997 8.9898
upperback 12.8304 4.5006 1.90637
thorax -5.75884 1.57204 -3.05944
lowerneck -7.56021 -10.8966 -2.80588
upperneck -27.9754 -12.3503 17.8762
head -5.8226 -7.92106 6.57376
rclavicle 3.18055e-015 -6.36111e-015
rhumerus 71.7157 6.0038 -50.969
rradius 13.1018
rwrist 13.7673
rhand -36.7453 -8.55944
rfingers 7.12502
rthumb -9.82895 -38.31
lclavicle 3.18055e-015 -6.36111e-015
lhumerus -12.7592 -28.6635 -266.547
lradius 43.2971
lwrist -332.834
lhand -11.8459 -17.1543
lfingers 7.12502
lthumb 14.2055 12.3399
rfemur -75.2896 -29.1006 29.3864
rtibia 71.26
rfoot -23.2214 -6.27019
rtoes 5.72569
lfemur -69.0365 -10.8142 -29.2314
ltibia 50.4195
lfoot 0.653653 -23.6297
ltoes -12.6204
238
root 18.6012 15.9217 -3.39873 1096.29 -48.5506 16.1314
lowerback 75.9447 -0.433753 8.85864
upperback 12.9652 4.5421 1.88067
thorax -5.64467 1.59292 -3.06714
lowerneck -7.31937 -10.8853 -2.4759
upperneck -28.0817 -12.323 17.8854
head -5.92606 -7.95137 6.55427
rclavicle 8.26944e-014 5.56597e-014
rhumerus 71.3349 6.72096 -49.1817
rradius 13.3559
rwrist 11.7747
rhand -36.3305 -8.21173
rfingers 7.12502
rthumb -9.42866 -37.9808
lclavicle 8.26944e-014 5.56597e-014
lhumerus -12.6056 -28.7486 -266.673
lradius 43.0014
lwrist -332.883
lhand -11.9421 -17.1558
lfingers 7.12502
lthumb 14.1128 12.3449
rfemur -74.6527 -29.0618 29.436
rtibia 70.7975
rfoot -23.0575 -6.15221
rtoes 5.72919
lfemur -68.4943 -10.6991 -28.9801
ltibia 50.0365
lfoot 0.72279 -23.4589
ltoes -12.7366
239
root 18.6016 15.9564 -3.40054 1096.09 -48.7083 15.8579
lowerback 75.6594 -0.251934 8.73192
upperback 13.111 4.56787 1.82734
thorax -5.51251 1.61107 -3.10036
lowerneck -6.99165 -10.8757 -2.10985
upperneck -28.2514 -12.2893 17.8914
head -6.06915 -7.98753 6.54056
rclavicle 6.67916e-014 -2.54444e-014
rhumerus 70.9698 7.51378 -47.3459
rradius 13.6423
rwrist 9.65932
rhand -35.9211 -8.07494
rfingers 7.12502
rthumb -9.03366 -37.8615
lclavicle 6.67916e-014 -2.54444e-014
lhumerus -12.4305 -28.8987 -266.87
lradius 42.6892
lwrist -332.827
lhand -11.97 -17.1552
lfingers 7.12502
lthumb 14.0859 12.3474
rfemur -73.8987 -29.0135 29.4072
rtibia 70.3132
rfoot -22.8863 -6.03321
rtoes 5.84627
lfemur -67.8455 -10.5406 -28.7909
ltibia 49.6318
lfoot 0.777849 -23.3205
ltoes -12.8426
